<svg xmlns="http://www.w3.org/2000/svg" width="12" height="7" fill="none" viewBox="0 0 12 7"><path fill="#171A23" d="M6.00104 6.72707C5.87882 6.72707 5.76026 6.70415 5.64538 6.65832C5.53049 6.61248 5.43515 6.55137 5.35938 6.47498L1.14271 2.25832C0.974652 2.09026 0.890625 1.87637 0.890625 1.61665C0.890625 1.35693 0.974652 1.14304 1.14271 0.974983C1.31076 0.806928 1.52465 0.7229 1.78437 0.7229C2.0441 0.7229 2.25799 0.806928 2.42604 0.974983L6.00104 4.54998L9.57604 0.974983C9.7441 0.806928 9.95799 0.7229 10.2177 0.7229C10.4774 0.7229 10.6913 0.806928 10.8594 0.974983C11.0274 1.14304 11.1115 1.35693 11.1115 1.61665C11.1115 1.87637 11.0274 2.09026 10.8594 2.25832L6.64271 6.47498C6.55104 6.56665 6.45174 6.63173 6.34479 6.67023C6.23785 6.70873 6.12326 6.72768 6.00104 6.72707Z"/></svg>